<svg xmlns="http://www.w3.org/2000/svg">
    <symbol id="flare-success" fill="currentColor" viewBox="0 0 48 48">
        <path d="M18.9 35.7 7.7 24.5l2.15-2.15 9.05 9.05 19.2-19.2 2.15 2.15Z"/>
    </symbol>

    <symbol id="flare-info" fill="currentColor" viewBox="0 0 48 48">
        <path d="M22.65 34h3V22h-3ZM24 18.3q.7 0 1.175-.45.475-.45.475-1.15t-.475-1.2Q24.7 15 24 15q-.7 0-1.175.5-.475.5-.475 1.2t.475 1.15q.475.45 1.175.45ZM24 44q-4.1 0-7.75-1.575-3.65-1.575-6.375-4.3-2.725-2.725-4.3-6.375Q4 28.1 4 23.95q0-4.1 1.575-7.75 1.575-3.65 4.3-6.35 2.725-2.7 6.375-4.275Q19.9 4 24.05 4q4.1 0 7.75 1.575 3.65 1.575 6.35 4.275 2.7 2.7 4.275 6.35Q44 19.85 44 24q0 4.1-1.575 7.75-1.575 3.65-4.275 6.375t-6.35 4.3Q28.15 44 24 44Zm.05-3q7.05 0 12-4.975T41 23.95q0-7.05-4.95-12T24 7q-7.05 0-12.025 4.95Q7 16.9 7 24q0 7.05 4.975 12.025Q16.95 41 24.05 41ZM24 24Z"/>
    </symbol>

    <symbol id="flare-warning" fill="currentColor" viewBox="0 0 48 48">
        <path d="M24 34q.7 0 1.175-.475.475-.475.475-1.175 0-.7-.475-1.175Q24.7 30.7 24 30.7q-.7 0-1.175.475-.475.475-.475 1.175 0 .7.475 1.175Q23.3 34 24 34Zm-1.35-7.65h3V13.7h-3ZM24 44q-4.1 0-7.75-1.575-3.65-1.575-6.375-4.3-2.725-2.725-4.3-6.375Q4 28.1 4 23.95q0-4.1 1.575-7.75 1.575-3.65 4.3-6.35 2.725-2.7 6.375-4.275Q19.9 4 24.05 4q4.1 0 7.75 1.575 3.65 1.575 6.35 4.275 2.7 2.7 4.275 6.35Q44 19.85 44 24q0 4.1-1.575 7.75-1.575 3.65-4.275 6.375t-6.35 4.3Q28.15 44 24 44Zm.05-3q7.05 0 12-4.975T41 23.95q0-7.05-4.95-12T24 7q-7.05 0-12.025 4.95Q7 16.9 7 24q0 7.05 4.975 12.025Q16.95 41 24.05 41ZM24 24Z"/>
    </symbol>

    <symbol id="flare-error" fill="currentColor" viewBox="0 0 48 48">
        <path d="M24 34q.7 0 1.175-.475.475-.475.475-1.175 0-.7-.475-1.175Q24.7 30.7 24 30.7q-.7 0-1.175.475-.475.475-.475 1.175 0 .7.475 1.175Q23.3 34 24 34Zm-1.35-7.65h3V13.7h-3ZM24 44q-4.1 0-7.75-1.575-3.65-1.575-6.375-4.3-2.725-2.725-4.3-6.375Q4 28.1 4 23.95q0-4.1 1.575-7.75 1.575-3.65 4.3-6.35 2.725-2.7 6.375-4.275Q19.9 4 24.05 4q4.1 0 7.75 1.575 3.65 1.575 6.35 4.275 2.7 2.7 4.275 6.35Q44 19.85 44 24q0 4.1-1.575 7.75-1.575 3.65-4.275 6.375t-6.35 4.3Q28.15 44 24 44Zm.05-3q7.05 0 12-4.975T41 23.95q0-7.05-4.95-12T24 7q-7.05 0-12.025 4.95Q7 16.9 7 24q0 7.05 4.975 12.025Q16.95 41 24.05 41ZM24 24Z"/>
    </symbol>

    <symbol id="flare-close" fill="currentColor" viewBox="0 0 48 48">
        <path d="m12.45 37.65-2.1-2.1L21.9 24 10.35 12.45l2.1-2.1L24 21.9l11.55-11.55 2.1 2.1L26.1 24l11.55 11.55-2.1 2.1L24 26.1Z"/>
    </symbol>
</svg>
